# xmcd
#
# Track frame offsets: 
#        182
#        19577
#        37425
#        59822
#        76572
#        92690
#        111377
#        130035
#        135492
#        146410
#        157080
#        173007
#        188012
#        204552
#        228190
#
# Disc length: 3244 seconds
#
# Revision: 5
# Processed by: cddbd v1.5.2PL0 Copyright (c) Steve Scherf et al.
# Submitted via: ExactAudioCopyFreeDBPlugin 1.0
#
DISCID=c80caa0f
DTITLE=Marianne Faithfull - 20th Century Blues
DYEAR=1996
DGENRE=Blues
TTITLE0=Alabama Song
TTITLE1=Want To Buy Some Illusions
TTITLE2=Pirate Jenny
TTITLE3=Salomon Song
TTITLE4=Boulevard Of Broken Dreams
TTITLE5=Complainte de la Seine
TTITLE6=The Ballad Of The Soldier's Wife
TTITLE7=Intro
TTITLE8=Mon ami, My Friend
TTITLE9=Falling In Love Again
TTITLE10=Mack The Knife
TTITLE11=20th Century Blues
TTITLE12=Don't Forget Me
TTITLE13=Surabaya Johnny
TTITLE14=Street Singers Farewell
EXTD=
EXTT0=
EXTT1=
EXTT2=
EXTT3=
EXTT4=
EXTT5=
EXTT6=
EXTT7=
EXTT8=
EXTT9=
EXTT10=
EXTT11=
EXTT12=
EXTT13=
EXTT14=
PLAYORDER=
